HIERARCHY
ROOT Hips
{
	OFFSET 0.000000 35.082581 0.000000
	CHANNELS 6 Xposition Yposition Zposition Xrotation Yrotation Zrotation 
	JOINT Spine
	{
		OFFSET 0.000000 6.876099 0.125700
		CHANNELS 3 Xrotation Yrotation Zrotation
		JOINT Spine1
		{
			OFFSET 0.000000 5.730043 0.104720
			CHANNELS 3 Xrotation Yrotation Zrotation
			JOINT Spine1_split
			{
				OFFSET 0.000000 5.730043 0.104720
				CHANNELS 3 Xrotation Yrotation Zrotation
				JOINT Spine2
				{
					OFFSET 0.000000 5.730043 0.104720
					CHANNELS 3 Xrotation Yrotation Zrotation
					JOINT Neck
					{
						OFFSET 0.000000 10.314075 0.188496
						CHANNELS 3 Xrotation Yrotation Zrotation
						JOINT Head
						{
							OFFSET 0.000000 7.643700 -2.377400
							CHANNELS 3 Xrotation Yrotation Zrotation
							JOINT HeadTop_End
							{
								OFFSET 0.000000 43.788605 -13.619600
								CHANNELS 3 Xrotation Yrotation Zrotation
								End Site
								{
									OFFSET 0.000000 0.000000 0.000000
								}
							}
						}
					}
					JOINT LeftShoulder
					{
						OFFSET 2.196100 4.412489 0.087492
						CHANNELS 3 Xrotation Yrotation Zrotation
						JOINT LeftShoulder_split
						{
							OFFSET 2.196100 4.412489 0.087492
							CHANNELS 3 Xrotation Yrotation Zrotation
							JOINT LeftArm
							{
								OFFSET 8.771219 -2.981674 -0.026999
								CHANNELS 3 Xrotation Yrotation Zrotation
								JOINT LeftForeArm
								{
									OFFSET 8.512804 0.000000 -0.000000
									CHANNELS 3 Xrotation Yrotation Zrotation
									JOINT LeftHand
									{
										OFFSET 18.484802 0.000000 -0.000000
										CHANNELS 3 Xrotation Yrotation Zrotation
										JOINT LeftHandThumb1
										{
											OFFSET 2.499420 -1.158070 2.653252
											CHANNELS 3 Xrotation Yrotation Zrotation
											JOINT LeftHandThumb2
											{
												OFFSET 2.370079 -1.368366 1.368366
												CHANNELS 3 Xrotation Yrotation Zrotation
												JOINT LeftHandThumb3
												{
													OFFSET 2.676727 -1.545410 1.545409
													CHANNELS 3 Xrotation Yrotation Zrotation
													JOINT LeftHandThumb4
													{
														OFFSET 1.692226 -0.977005 0.977007
														CHANNELS 3 Xrotation Yrotation Zrotation
														End Site
														{
															OFFSET 0.000000 0.000000 0.000000
														}
													}
												}
											}
										}
										JOINT LeftHandIndex1
										{
											OFFSET 7.924831 -0.457527 2.345128
											CHANNELS 3 Xrotation Yrotation Zrotation
											JOINT LeftHandIndex2
											{
												OFFSET 3.643303 0.000000 0.000000
												CHANNELS 3 Xrotation Yrotation Zrotation
												JOINT LeftHandIndex3
												{
													OFFSET 3.810799 0.000000 0.000000
													CHANNELS 3 Xrotation Yrotation Zrotation
													JOINT LeftHandIndex4
													{
														OFFSET 2.403702 0.000000 0.000000
														CHANNELS 3 Xrotation Yrotation Zrotation
														End Site
														{
															OFFSET 0.000000 0.000000 0.000000
														}
													}
												}
											}
										}
										JOINT LeftHandMiddle1
										{
											OFFSET 8.563995 0.000000 -0.000000
											CHANNELS 3 Xrotation Yrotation Zrotation
											JOINT LeftHandMiddle2
											{
												OFFSET 3.861618 0.000000 0.000000
												CHANNELS 3 Xrotation Yrotation Zrotation
												JOINT LeftHandMiddle3
												{
													OFFSET 3.701603 0.000000 0.000000
													CHANNELS 3 Xrotation Yrotation Zrotation
													JOINT LeftHandMiddle4
													{
														OFFSET 2.322544 0.000000 0.000000
														CHANNELS 3 Xrotation Yrotation Zrotation
														End Site
														{
															OFFSET 0.000000 0.000000 0.000000
														}
													}
												}
											}
										}
										JOINT LeftHandRing1
										{
											OFFSET 8.426460 -0.424637 -3.286992
											CHANNELS 3 Xrotation Yrotation Zrotation
											JOINT LeftHandRing2
											{
												OFFSET 3.126408 0.000000 0.000000
												CHANNELS 3 Xrotation Yrotation Zrotation
												JOINT LeftHandRing3
												{
													OFFSET 3.085026 0.000000 0.000000
													CHANNELS 3 Xrotation Yrotation Zrotation
													JOINT LeftHandRing4
													{
														OFFSET 1.644005 0.000000 0.000000
														CHANNELS 3 Xrotation Yrotation Zrotation
														End Site
														{
															OFFSET 0.000000 0.000000 0.000000
														}
													}
												}
											}
										}
									}
								}
							}
						}
					}
					JOINT RightShoulder
					{
						OFFSET -2.196100 4.412496 0.070690
						CHANNELS 3 Xrotation Yrotation Zrotation
						JOINT RightShoulder_split
						{
							OFFSET -2.196100 4.412496 0.070690
							CHANNELS 3 Xrotation Yrotation Zrotation
							JOINT RightArm
							{
								OFFSET -8.771282 -2.981682 -0.094208
								CHANNELS 3 Xrotation Yrotation Zrotation
								JOINT RightForeArm
								{
									OFFSET -8.494598 0.000000 0.000000
									CHANNELS 3 Xrotation Yrotation Zrotation
									JOINT RightHand
									{
										OFFSET -18.483803 0.000000 0.000001
										CHANNELS 3 Xrotation Yrotation Zrotation
										JOINT RightHandThumb1
										{
											OFFSET -2.527351 -1.008072 2.575253
											CHANNELS 3 Xrotation Yrotation Zrotation
											JOINT RightHandThumb2
											{
												OFFSET -2.321518 -1.340328 1.340329
												CHANNELS 3 Xrotation Yrotation Zrotation
												JOINT RightHandThumb3
												{
													OFFSET -2.657753 -1.534454 1.534455
													CHANNELS 3 Xrotation Yrotation Zrotation
													JOINT RightHandThumb4
													{
														OFFSET -1.807510 -1.043568 1.043567
														CHANNELS 3 Xrotation Yrotation Zrotation
														End Site
														{
															OFFSET 0.000000 0.000000 0.000000
														}
													}
												}
											}
										}
										JOINT RightHandIndex1
										{
											OFFSET -8.811420 0.015533 2.887987
											CHANNELS 3 Xrotation Yrotation Zrotation
											JOINT RightHandIndex2
											{
												OFFSET -3.537502 0.000000 0.000000
												CHANNELS 3 Xrotation Yrotation Zrotation
												JOINT RightHandIndex3
												{
													OFFSET -3.356201 0.000000 0.000000
													CHANNELS 3 Xrotation Yrotation Zrotation
													JOINT RightHandIndex4
													{
														OFFSET -1.933098 0.000000 0.000000
														CHANNELS 3 Xrotation Yrotation Zrotation
														End Site
														{
															OFFSET 0.000000 0.000000 0.000000
														}
													}
												}
											}
										}
										JOINT RightHandMiddle1
										{
											OFFSET -8.178135 0.000000 0.000000
											CHANNELS 3 Xrotation Yrotation Zrotation
											JOINT RightHandMiddle2
											{
												OFFSET -3.901302 0.000000 0.000000
												CHANNELS 3 Xrotation Yrotation Zrotation
												JOINT RightHandMiddle3
												{
													OFFSET -3.909599 0.000000 0.000000
													CHANNELS 3 Xrotation Yrotation Zrotation
													JOINT RightHandMiddle4
													{
														OFFSET -2.376003 0.000000 0.000000
														CHANNELS 3 Xrotation Yrotation Zrotation
														End Site
														{
															OFFSET 0.000000 0.000000 0.000000
														}
													}
												}
											}
										}
										JOINT RightHandRing1
										{
											OFFSET -7.559013 0.014137 -2.865403
											CHANNELS 3 Xrotation Yrotation Zrotation
											JOINT RightHandRing2
											{
												OFFSET -3.449306 0.000000 0.000000
												CHANNELS 3 Xrotation Yrotation Zrotation
												JOINT RightHandRing3
												{
													OFFSET -3.362106 0.000000 0.000000
													CHANNELS 3 Xrotation Yrotation Zrotation
													JOINT RightHandRing4
													{
														OFFSET -2.076401 0.000000 0.000000
														CHANNELS 3 Xrotation Yrotation Zrotation
														End Site
														{
															OFFSET 0.000000 0.000000 0.000000
														}
													}
												}
											}
										}
									}
								}
							}
						}
					}
				}
			}
		}
	}
	JOINT LeftUpLeg
	{
		OFFSET 10.205400 -3.823500 0.155100
		CHANNELS 3 Xrotation Yrotation Zrotation
		JOINT LeftLeg
		{
			OFFSET 0.708757 -12.982077 0.567790
			CHANNELS 3 Xrotation Yrotation Zrotation
			JOINT LeftFoot
			{
				OFFSET -0.708756 -10.717838 -2.184338
				CHANNELS 3 Xrotation Yrotation Zrotation
				JOINT LeftToeBase
				{
					OFFSET 0.108149 -7.191104 7.560241
					CHANNELS 3 Xrotation Yrotation Zrotation
					JOINT LeftToe_End
					{
						OFFSET 0.070230 0.081724 4.490308
						CHANNELS 3 Xrotation Yrotation Zrotation
						End Site
						{
							OFFSET 0.000000 0.000000 0.000000
						}
					}
				}
			}
		}
	}
	JOINT RightUpLeg
	{
		OFFSET -10.205400 -3.823500 0.005500
		CHANNELS 3 Xrotation Yrotation Zrotation
		JOINT RightLeg
		{
			OFFSET -0.708756 -12.982134 0.610632
			CHANNELS 3 Xrotation Yrotation Zrotation
			JOINT RightFoot
			{
				OFFSET 0.708754 -10.717769 -1.945823
				CHANNELS 3 Xrotation Yrotation Zrotation
				JOINT RightToeBase
				{
					OFFSET -0.108140 -7.191069 7.372968
					CHANNELS 3 Xrotation Yrotation Zrotation
					JOINT RightToe_End
					{
						OFFSET -0.070227 0.081735 4.479403
						CHANNELS 3 Xrotation Yrotation Zrotation
						End Site
						{
							OFFSET 0.000000 0.000000 0.000000
						}
					}
				}
			}
		}
	}
}
MOTION
Frames: 4
Frame Time: 0.016667
3.767823 31.574074 -1.336833 7.692995 -32.391325 -16.844408 19.734349 -6.819301 11.842632 14.882782 -0.853696 11.261192 0.000000 0.000000 0.000000 15.131234 -0.648043 9.675236 -9.983876 -2.860074 5.479614 44.315227 -21.168834 34.786392 -0.000000 0.000001 0.000001 1.428807 -22.224469 -11.600551 0.000000 0.000000 0.000000 -29.377118 -24.713935 -57.022855 0.000006 -6.918364 0.000003 -21.663617 1.158996 -14.566400 18.491255 -0.461444 10.916078 1.284044 32.757604 -3.088968 2.117134 9.311160 -0.358613 -0.000002 -0.000003 -0.000000 0.339562 4.671356 -7.844270 0.387018 2.823574 -20.566214 0.034622 0.816838 -10.169821 0.000000 -0.000001 0.000004 0.912573 8.769265 -15.831740 0.919069 3.991128 -33.400400 0.170573 1.488881 -12.264407 -0.000002 0.000001 0.000000 2.555800 11.673031 -26.909209 1.710651 3.886776 -40.215450 0.544862 1.835078 -19.344161 0.000001 -0.000001 -0.000001 2.724572 8.294357 13.453006 0.000000 0.000000 0.000000 6.429265 49.813837 20.457873 0.000004 22.722602 -0.000002 -0.688179 13.861787 2.493911 18.491286 0.461423 -10.916078 1.284059 -32.757611 3.088959 2.008683 -8.430478 1.114716 0.000000 -0.000006 -0.000001 0.339561 -4.671355 7.844273 0.387025 -2.823584 20.566265 -0.193116 -0.216346 13.843927 0.000001 0.000001 0.000003 0.912593 -8.769265 15.831754 0.919072 -3.991136 33.400431 0.216470 -1.688827 15.898051 0.000000 0.000001 0.000001 2.555825 -11.673020 26.909197 1.710659 -3.886781 40.215454 -0.157951 0.035282 17.815336 0.000000 0.000001 0.000000 -34.314027 -6.822475 24.952908 75.518779 3.512493 10.143248 -38.253390 36.584201 -13.069088 -0.315154 0.000010 0.000012 0.000000 -0.000001 -0.000000 -20.319922 6.924289 26.165043 -6.090369 0.601805 -2.452445 20.369149 12.591584 -1.050803 -4.013604 0.000033 -0.000002 -0.000000 0.000001 0.000000 
3.750040 31.579212 -1.341904 7.698783 -32.264014 -16.834331 19.660307 -6.847123 11.917976 14.845363 -0.865569 11.290747 0.000000 0.000000 0.000000 15.093029 -0.659120 9.704721 -9.957540 -2.861783 5.471379 44.377832 -21.263555 34.788892 -0.000001 0.000000 -0.000000 1.421026 -22.263302 -11.624763 0.000000 0.000000 0.000000 -29.239493 -24.946675 -57.154016 -0.000007 -6.919570 0.000005 -22.087461 0.509908 -14.614096 18.491255 -0.461448 10.916074 1.284048 32.757598 -3.088974 2.117133 9.311156 -0.358617 -0.000001 0.000000 -0.000006 0.339561 4.671356 -7.844274 0.387017 2.823571 -20.566217 0.034628 0.816839 -10.169822 0.000002 -0.000000 -0.000001 0.912575 8.769265 -15.831740 0.919067 3.991128 -33.400400 0.170570 1.488882 -12.264409 -0.000000 -0.000001 0.000001 2.555798 11.673032 -26.909214 1.710648 3.886777 -40.215450 0.544866 1.835076 -19.344165 0.000002 0.000000 -0.000001 2.805145 8.300646 13.088436 0.000000 0.000000 0.000000 6.473847 49.476336 20.586795 -0.000002 23.126211 0.000003 -0.900164 13.002786 2.887910 18.491282 0.461421 -10.916078 1.284054 -32.757608 3.088967 2.008680 -8.430473 1.114720 0.000002 0.000000 0.000005 0.339561 -4.671356 7.844273 0.387025 -2.823583 20.566266 -0.193113 -0.216345 13.843924 0.000000 0.000001 0.000003 0.912592 -8.769265 15.831755 0.919069 -3.991135 33.400438 0.216470 -1.688826 15.898052 -0.000001 -0.000000 -0.000002 2.555824 -11.673021 26.909195 1.710660 -3.886782 40.215461 -0.157954 0.035285 17.815336 0.000000 0.000000 -0.000000 -34.397376 -6.826054 25.019594 75.467416 3.479265 10.140432 -38.160967 36.395899 -13.100973 -0.314754 -0.000001 0.000004 0.000000 0.000003 0.000000 -20.268697 6.942768 26.180259 -6.105162 0.619739 -2.457018 20.315836 12.444495 -1.090644 -4.015072 0.000027 -0.000001 0.000000 0.000001 -0.000000 
3.731903 31.586285 -1.347059 7.701372 -32.116977 -16.820044 19.588916 -6.873675 11.994661 14.807937 -0.877131 11.320872 0.000000 0.000000 0.000000 15.054849 -0.669729 9.734744 -9.932002 -2.864889 5.463861 44.440185 -21.362284 34.797601 -0.000000 0.000000 0.000000 1.413640 -22.300076 -11.647880 0.000000 0.000000 0.000000 -29.076757 -25.170173 -57.285353 0.000009 -6.920562 -0.000004 -22.500223 -0.128284 -14.674298 18.491252 -0.461452 10.916076 1.284047 32.757601 -3.088975 2.117130 9.311156 -0.358617 0.000001 -0.000000 -0.000004 0.339558 4.671358 -7.844271 0.387018 2.823573 -20.566212 0.034624 0.816837 -10.169818 -0.000002 -0.000001 0.000000 0.912576 8.769266 -15.831740 0.919069 3.991128 -33.400404 0.170575 1.488882 -12.264411 -0.000001 0.000001 -0.000000 2.555799 11.673033 -26.909210 1.710648 3.886777 -40.215457 0.544861 1.835077 -19.344161 0.000001 0.000001 0.000000 2.887490 8.303043 12.724818 0.000000 0.000000 0.000000 6.502557 49.145062 20.735549 -0.000001 23.528035 -0.000011 -1.075810 12.131596 3.207537 18.491276 0.461422 -10.916077 1.284052 -32.757618 3.088960 2.008678 -8.430480 1.114713 -0.000000 -0.000001 0.000002 0.339561 -4.671357 7.844273 0.387025 -2.823582 20.566270 -0.193113 -0.216345 13.843927 -0.000000 0.000000 0.000003 0.912593 -8.769263 15.831752 0.919070 -3.991136 33.400438 0.216470 -1.688828 15.898052 0.000000 0.000000 -0.000002 2.555823 -11.673020 26.909192 1.710660 -3.886781 40.215457 -0.157952 0.035283 17.815333 0.000000 -0.000000 0.000000 -34.476637 -6.844168 25.068942 75.395672 3.474632 10.137381 -38.036456 36.180748 -13.155877 -0.314909 -0.000004 0.000004 0.000000 0.000001 0.000000 -20.206739 6.964889 26.187570 -6.120351 0.641230 -2.462839 20.253401 12.277318 -1.128618 -4.016312 0.000026 0.000001 0.000000 -0.000000 -0.000000 
3.713501 31.595306 -1.352119 7.700145 -31.951437 -16.801707 19.519675 -6.898053 12.072814 14.770571 -0.887983 11.351575 0.000000 0.000000 0.000000 15.016745 -0.679458 9.765318 -9.907240 -2.869370 5.456875 44.501141 -21.464001 34.810619 -0.000001 -0.000001 0.000000 1.406862 -22.333694 -11.669319 0.000000 0.000000 0.000000 -28.888835 -25.384545 -57.416332 -0.000010 -6.922052 -0.000017 -22.902275 -0.751413 -14.745262 18.491253 -0.461452 10.916077 1.284046 32.757598 -3.088970 2.117134 9.311161 -0.358616 -0.000003 -0.000002 0.000001 0.339566 4.671357 -7.844270 0.387018 2.823573 -20.566210 0.034625 0.816835 -10.169820 0.000001 -0.000000 0.000003 0.912580 8.769266 -15.831738 0.919071 3.991128 -33.400407 0.170571 1.488881 -12.264409 0.000000 0.000001 -0.000001 2.555807 11.673034 -26.909210 1.710648 3.886777 -40.215457 0.544868 1.835078 -19.344165 0.000001 0.000001 -0.000001 2.971385 8.302331 12.360873 0.000000 0.000000 0.000000 6.513155 48.819959 20.906738 0.000006 23.926624 -0.000026 -1.214052 11.254104 3.455856 18.491282 0.461421 -10.916082 1.284062 -32.757611 3.088967 2.008678 -8.430480 1.114718 0.000003 -0.000000 -0.000000 0.339561 -4.671354 7.844273 0.387025 -2.823584 20.566266 -0.193114 -0.216346 13.843930 -0.000001 0.000000 0.000000 0.912592 -8.769266 15.831754 0.919070 -3.991136 33.400438 0.216467 -1.688826 15.898056 0.000000 -0.000000 -0.000003 2.555824 -11.673020 26.909195 1.710661 -3.886783 40.215450 -0.157952 0.035283 17.815334 -0.000000 0.000002 0.000000 -34.547548 -6.876109 25.098435 75.303259 3.494017 10.134237 -37.884358 35.950643 -13.228933 -0.314768 0.000010 0.000003 0.000000 0.000000 0.000000 -20.133658 6.988942 26.186129 -6.134399 0.661473 -2.469271 20.181872 12.097261 -1.166235 -4.017269 0.000033 0.000001 0.000000 0.000001 -0.000000 
